<svg width="35" height="34" viewBox="0 0 35 34" fill="none" xmlns="http://www.w3.org/2000/svg">
<path d="M17.4785 27.9708L9.00554 33.075C8.63123 33.3132 8.23991 33.4153 7.83158 33.3812C7.42325 33.3472 7.06595 33.2111 6.7597 32.9729C6.45345 32.7347 6.21526 32.4373 6.04512 32.0807C5.87498 31.7241 5.84095 31.3239 5.94304 30.8802L8.18887 21.2333L0.685747 14.751C0.345469 14.4448 0.133135 14.0957 0.0487464 13.7037C-0.0356425 13.3117 -0.010462 12.9292 0.124288 12.5563C0.259038 12.1833 0.463205 11.8771 0.736788 11.6375C1.01037 11.3979 1.38468 11.2448 1.8597 11.1781L11.7618 10.3104L15.5899 1.225C15.7601 0.816667 16.0241 0.510416 16.3821 0.30625C16.7401 0.102083 17.1055 0 17.4785 0C17.8514 0 18.2169 0.102083 18.5748 0.30625C18.9328 0.510416 19.1969 0.816667 19.367 1.225L23.1951 10.3104L33.0972 11.1781C33.5736 11.2462 33.9479 11.3993 34.2201 11.6375C34.4923 11.8757 34.6965 12.1819 34.8326 12.5563C34.9687 12.9306 34.9946 13.3137 34.9102 13.7057C34.8258 14.0977 34.6128 14.4462 34.2712 14.751L26.768 21.2333L29.0139 30.8802C29.116 31.3226 29.0819 31.7227 28.9118 32.0807C28.7417 32.4387 28.5035 32.7361 28.1972 32.9729C27.891 33.2098 27.5337 33.3459 27.1253 33.3812C26.717 33.4166 26.3257 33.3146 25.9514 33.075L17.4785 27.9708Z" fill="#A4A7AE"/>
</svg>
